<svg width="16" height="17" viewBox="0 0 16 17" fill="none" xmlns="http://www.w3.org/2000/svg">
    <path d="M16 0H0L1.97362 3.41263H6.06962V10.1838C6.06962 10.1838 6.61622 10.6811 7.93514 11.3081C9.25405 11.9351 9.93038 11.9351 9.93038 11.9351V3.41263H14.0541L16 0Z"
          fill="#907659"/>
    <path d="M2.11892 6.76757C2.11892 5.22181 3.86595 5.2973 4.67027 5.2973C3.06162 4.65323 1.68026 5.47277 1.40541 5.92432L1.40369 5.92715C1.09961 6.42668 0.283944 7.76662 3.17405 10.6595C5.23284 12.7202 8.10132 13.9554 9.61746 14.5062C9.70966 14.5397 9.68514 14.6663 9.58738 14.6582C7.36513 14.473 4.77266 13.2111 3.69793 12.515C3.65685 12.4884 3.60997 12.5378 3.64113 12.5755C4.67925 13.8335 6.732 14.777 8.10811 15.3081C10.573 16.2595 15.3297 16.7568 15.3297 13.2034C15.3297 10.6331 12.7694 8.54755 11.3183 7.74756C11.2758 7.72415 11.2383 7.77784 11.2717 7.81296C13.1405 9.77622 13.7362 10.4952 13.8564 11.6167C13.8707 11.7507 13.6949 11.7996 13.6241 11.6849C13.0852 10.8116 12.4867 10.1823 12.0492 9.8041C11.941 9.71057 11.8494 9.81327 11.9366 9.92662C12.2578 10.3439 12.563 10.8262 12.7179 11.3081C13.0367 12.2998 12.7626 13.2034 11.0564 13.2034C7.19568 13.2034 2.11892 8.69977 2.11892 6.76757Z"
          fill="#907659"/>
</svg>
